PathFileType	4	(X/Y/Z)	Patient4_TMGait_0pt4_03_right_19.trc.trc
DataRate	CameraRate	NumFrames	NumMarkers	Units	OrigDataRate	OrigDataStartFrame	OrigNumFrames
74.468085106383	74.468085106383	5	33	mm	74.468085106383	71	       141
Frame#	Time	Sacral			L.Shoulder			Chest			R.Shoulder			Neck			R.ASIS			L.ASIS			R.Thigh.Superior			R.Thigh.Lateral			R.Thigh.Inferior			R.Patella			L.Thigh.Superior			L.Thigh.Lateral			L.Thigh.Inferior			L.Patella			L.Shank.Superior			L.Shank.Lateral			L.Shank.Inferior			R.Shank.Superior			R.Shank.Lateral			R.Shank.Inferior			R.Heel			R.Midfoot.Superior			R.Midfoot.Lateral			R.Toe			L.Heel			L.Midfoot.Lateral			L.Midfoot.Superior			L.Toe			L.Elbow			L.Wrist			R.Elbow			R.Wrist			
		X1	Y1	Z1	X2	Y2	Z2	X3	Y3	Z3	X4	Y4	Z4	X5	Y5	Z5	X6	Y6	Z6	X7	Y7	Z7	X8	Y8	Z8	X9	Y9	Z9	X10	Y10	Z10	X11	Y11	Z11	X12	Y12	Z12	X13	Y13	Z13	X14	Y14	Z14	X15	Y15	Z15	X16	Y16	Z16	X17	Y17	Z17	X18	Y18	Z18	X19	Y19	Z19	X20	Y20	Z20	X21	Y21	Z21	X22	Y22	Z22	X23	Y23	Z23	X24	Y24	Z24	X25	Y25	Z25	X26	Y26	Z26	X27	Y27	Z27	X28	Y28	Z28	X29	Y29	Z29	X30	Y30	Z30	X31	Y31	Z31	X32	Y32	Z32	X33	Y33	Z33	

71	25.090000000000	849.568903767104	1000.971135588406	532.969976813159	999.848193365380	1421.919489835496	316.469518617096	1129.498023947648	1356.069489844974	458.662273970643	1080.419054781697	1435.771335720506	642.685772211579	1011.159359505276	1488.316000944597	471.379959819683	1091.271580431198	934.925757238856	616.665879076386	1039.262219195018	955.988526889554	345.819022824487	1099.027698658910	725.348291491935	584.530996096001	1008.739739337168	624.105232388900	654.057376413016	1066.453214663845	563.789235716576	567.556220878034	1052.653040888596	475.395429693980	574.697572672717	1114.164745269580	763.098512152358	370.847081036979	1055.611755271721	637.925206285284	298.658864793224	1157.957317449943	574.690750829808	358.176748661993	1183.298407608056	512.753174134185	354.069542829097	1166.909163219047	443.462764509124	343.741513688898	1102.714710932770	312.115342208455	294.840695619989	1194.709668638100	215.220225002214	345.960237038883	1011.892727688381	390.926132477126	583.303260741838	930.553109979964	297.479872573086	649.258683312870	952.601343689537	198.687342334114	582.570467729244	800.516221550309	43.410083298771	556.911587578166	970.788054745888	95.056827426291	592.026387845111	883.568486658217	36.560582822695	631.286170419252	1091.704596741285	42.231200743810	620.297679735901	1115.142639703283	39.309278383095	386.744884177109	1188.482259525546	41.210932475520	306.495336068235	1261.522383666984	115.927950832098	326.735861310216	1393.685383985081	82.551301666431	299.572706133270	904.732808876401	1074.765597040733	228.428317928063	951.239400031512	817.240985983342	200.501506530981	1164.996984882177	1097.339633851133	752.291818945691	1376.051725941776	1065.540120282531	617.343521180856	
72	25.103428571429	850.376505835394	999.986587618399	530.890005282805	999.651503659941	1420.846741426629	313.866509394043	1129.328817858293	1355.579395615260	456.294737157715	1079.763740334331	1435.251829367437	640.160371942914	1010.676544538101	1487.516819636845	468.729639153146	1092.032914619185	934.334197408962	615.208540354660	1040.453398118041	954.811557227543	344.264771982330	1098.513655147280	724.315815922545	583.637853766212	1006.929395870989	623.750414285126	653.094264421760	1064.229032063512	562.768025995353	567.006014400407	1049.472222686950	474.489020751676	573.984007275666	1115.327255176593	761.330553023297	368.894501834661	1054.692330973992	635.758431316833	298.613912657455	1157.556004571732	572.809861249987	357.330394216396	1182.163688061070	510.375169360523	353.964479841548	1165.207106349158	440.922079234008	344.065978638421	1099.414799980398	310.048833770381	296.450597397548	1190.683457833340	212.564319776960	347.366299343500	1008.298235182806	390.338935938505	582.687302159134	926.390482907332	297.513941591135	648.855239499576	947.844757719939	198.434852615507	582.395820554545	795.136006764000	43.374250626026	556.986356846283	965.390192207921	95.053320950853	592.044286232381	878.175088464653	36.480876853894	631.274951314390	1086.324289457867	42.119771198686	620.381530506858	1108.750559516263	39.148018436010	389.403393206622	1181.165853460033	39.894061726054	308.272728037926	1256.435309331993	112.060544927963	328.426695144746	1387.370510752029	75.235864506251	299.445599925945	905.647409997434	1073.355114722351	226.154045475193	952.649321494498	815.885110693499	198.552724438259	1167.826296114120	1096.779357679996	747.060415992497	1377.446846889507	1065.585880197167	609.561376583463	
73	25.116857142857	851.297100839897	999.054652473830	528.651436241508	999.462491353454	1419.777861996755	311.042255309625	1129.199900035113	1355.161164682730	453.706359212452	1079.120616535549	1434.787896185357	637.423414011141	1010.194513038474	1486.748233402687	465.856819334912	1092.891403185870	933.748075812990	613.580405296312	1041.811745572218	953.716478361019	342.576478343789	1098.122058292231	723.235623542063	582.669059261719	1005.175077530078	623.387832828997	651.981820498023	1062.100547942001	561.732316888310	566.305323359391	1046.410502784102	473.523977490146	573.109411434392	1116.858185386392	759.896315153216	366.978221963175	1054.408770678371	633.916786638632	298.464906683400	1157.769254523857	571.396255034175	356.547489956609	1181.510562398145	508.286050489930	353.965792987230	1163.990819184792	438.511182770939	344.362152301792	1096.456654183187	308.275879446361	297.685911627373	1186.568317632348	209.954607620697	348.666561037587	1004.762406287191	389.735826133254	581.934116909417	922.243235569588	297.591329894267	648.341143550147	943.099524559576	198.196342773134	582.159792315698	789.738299763079	43.324979345375	557.059858268950	959.999046311258	95.053657900567	592.034481140550	872.788197702395	36.385708615665	631.252948413795	1080.970542729456	42.006613578954	620.474560587186	1101.757192534515	38.998184812252	391.693653939986	1173.282141954890	38.750358543708	309.692382925175	1250.754890272938	108.379134340386	329.937918522883	1380.503419236899	68.191775359876	299.104216946817	906.807397390470	1071.903583326024	223.557588355604	954.510022166432	814.550839685227	196.126404534011	1170.102917401290	1096.310247181950	742.129725492518	1378.269234351182	1064.944381833632	602.251798318571	
74	25.130285714286	852.291939831131	998.244286605480	526.289870632756	999.302219517688	1418.738953904395	307.994376514416	1129.136126952703	1354.820602980038	450.881221831797	1078.560734173136	1434.424476035102	634.456202313726	1009.755342260671	1486.044377618447	462.750160961301	1093.800829503945	933.195923850228	611.787701854518	1043.274093103556	952.752440600284	340.758880912099	1097.853792386258	722.142583681274	581.605588348481	1003.547615775673	623.012499744539	650.699377675168	1060.154464699390	560.711091295454	565.403316677470	1043.611005336345	472.482413008093	572.062811297221	1118.684922326620	758.876118280081	365.188437124358	1054.799467245369	632.519612748807	298.151256275934	1158.552246525451	570.509407189193	355.833038896177	1181.279836004836	506.591306261044	354.058135032180	1163.287802250736	436.356881850713	344.581170155501	1094.051661044457	306.873772280104	298.392403096742	1182.618114194904	207.559485397612	349.782862425105	1001.377949339265	389.112094016872	581.031455392691	918.172428019656	297.735562150281	647.704299406660	938.411365219549	197.987075505347	581.855305597425	784.325201084955	43.315313363647	557.128733866405	954.640097536810	95.061185639041	591.998834192387	867.413532861592	36.299355486364	631.217486437194	1075.651142739204	41.880061749865	620.575965353344	1094.624745605612	38.856825147086	393.486811311209	1165.380379806230	37.821110182457	310.709730508166	1244.833354961926	105.142366743167	331.199275252828	1373.535909999794	61.953670042321	298.679855203036	908.192762368617	1070.441847301434	220.658238812474	956.808567732793	813.270701014088	193.247141559401	1171.816001512213	1095.962916066810	737.572962503505	1378.498472296139	1063.636205560819	595.489287241167	
75	25.143714285714	853.320949885045	997.618326671469	523.835887922806	999.192225936270	1417.756034172467	304.722812612513	1129.158152000953	1354.563824791375	447.810838253082	1078.146012939498	1434.211494220318	631.242214184752	1009.396388658368	1485.439817296450	459.398667900639	1094.711158581740	932.714562085273	609.842951370739	1044.777944712772	951.960227498621	338.815660728127	1097.717328714094	721.085790945869	580.417434463758	1002.150122207041	622.619994560099	649.229046713628	1058.516042380197	559.737804508980	564.253732594137	1041.261994308993	471.342954439467	570.847071053533	1120.736147177742	758.334967190281	363.596158613391	1055.869714950639	631.652937197202	297.629941411359	1159.837250812028	570.168890787818	355.172791703984	1181.400245076743	505.350724136074	354.195928929637	1163.071945363416	434.547195736756	344.678112213016	1092.291625155963	305.891485315614	298.488376213058	1178.973574506120	205.502546845967	350.663144723456	998.277506008963	388.464337904743	579.979387465699	914.269504596752	297.979191319377	646.936194347757	933.849995969494	197.830562534560	581.480143198213	778.907750220508	43.431921821038	557.189011025046	949.351723212486	95.082114359868	591.942954152066	862.060613970242	36.264472925638	631.165101482143	1070.372556752328	41.725069519618	620.683868890486	1087.677732860107	38.728661911028	394.735196997724	1157.835932292442	37.119806873580	311.329252124298	1238.912838016990	102.523665605436	332.165514027187	1366.774650173373	56.881223927163	298.263300813767	909.786733122128	1069.001461516609	217.472649347804	959.537464554874	812.077869895922	189.949783032778	1172.952649010061	1095.775072153137	733.443481041466	1378.112549694664	1061.693897033154	589.342785196432	
